<svg width="132" height="40" viewBox="0 0 132 40" fill="none" xmlns="http://www.w3.org/2000/svg">
<g id="Logo" clip-path="url(#clip0_254_14588)">
<path id="Vector" d="M1.37304 37.4671C2.44514 36.9995 3.34796 36.4734 4.21317 35.8305V16.3078H0L0.808777 13.736H3.89342C3.47962 12.3721 3.14107 10.4822 3.14107 9.21578C3.14107 3.35119 6.73354 0 12.9781 0C16.1191 0 19.3542 0.681929 21.9875 1.6756L27.1975 0L28.2696 0.37019V35.3239C29.3417 36.1617 30.5078 36.9605 31.768 37.4671L31.1661 39.2986H18.5455L17.9812 37.4671C19.0533 36.9995 19.9561 36.3566 20.8213 35.6357V7.03361C18.9404 4.03312 16.3636 1.83147 13.5235 1.83147C10.0815 1.83147 9.2163 4.18899 9.2163 7.44277C9.2163 9.70287 9.93103 12.2163 11.1348 13.736H18.2821L17.6238 16.3078H11.6426V35.5187C12.7524 36.2981 14.0313 36.9411 15.348 37.4671L14.7461 39.357H1.9185L1.35423 37.4671H1.37304Z" fill="#300607"/>
<path id="Vector_2" d="M31.8623 26.6148C31.8623 18.9967 37.3357 13.1321 45.6868 13.1321C54.0379 13.1321 59.5112 17.3211 59.5112 26.5174C59.5112 34.1355 53.9814 40.0001 45.6868 40.0001C37.3921 40.0001 31.8623 35.8111 31.8623 26.6148ZM51.8184 28.4073C51.8184 20.5943 48.6209 16.1326 45.0849 16.1326C41.5488 16.1326 39.5551 18.607 39.5551 24.7444C39.5551 32.5183 42.4893 37.0191 46.251 37.0191C49.693 37.0191 51.8184 34.5446 51.8184 28.4073Z" fill="#300607"/>
<path id="Vector_3" d="M116.483 13.1125C113.342 13.9503 110.107 14.7881 106.702 15.1583V17.0482L110.05 18.3536V35.772C109.26 36.3565 108.395 36.8436 107.492 37.2528C106.345 36.7657 105.273 36.2007 104.238 35.4603V22.3478C104.238 16.8923 102.357 13.1125 95.8872 13.1125C92.7462 13.1125 89.5487 15.1583 87.0659 18.1977C86.0502 15.0414 83.7744 13.1125 79.2038 13.1125C75.8559 13.1125 72.5079 15.3726 69.9311 18.7238L70.5894 13.5217L69.6866 13.093C66.7524 13.9308 63.5549 14.7686 60.3198 15.0414V16.9898L63.4609 18.2562V35.7915C62.5957 36.4734 61.6929 36.9995 60.6208 37.4671L61.185 39.357H73.9938L74.5957 37.4671C73.3355 36.941 72.0189 36.2591 70.8904 35.4798V20.9449C72.4703 19.2693 74.1819 18.3146 76.0628 18.3146C78.7524 18.3146 80.1067 19.9513 80.1067 23.8285V35.7915C79.2415 36.4734 78.3386 36.9995 77.2665 37.4671L77.8308 39.357H90.6396L91.2414 37.4671C89.9248 36.941 88.6647 36.2591 87.5361 35.4798V21.0034C89.1161 19.2693 90.8277 18.3341 92.7462 18.3341C95.4358 18.3341 96.7524 19.9708 96.7524 23.848V35.811C95.8872 36.4929 94.9844 37.019 93.9123 37.4866L94.4766 39.3765H117.48V13.4827L116.464 13.1125H116.483Z" fill="#300607"/>
<path id="Vector_4" d="M121.223 35.5186V13.5216L122.238 13.1514C125.379 13.9892 128.615 14.827 132.019 15.1972V17.0871L128.671 18.3925V35.8109C129.574 36.4928 130.589 37.0773 131.662 37.4865L131.097 39.3764H121.223V35.4991V35.5186Z" fill="#300607"/>
<path id="Vector_5" d="M109.448 7.46213C109.448 5.53325 110.84 4.05249 112.947 4.05249C115.053 4.05249 116.445 5.12409 116.445 7.44265C116.445 9.37154 115.053 10.8523 112.947 10.8523C110.84 10.8523 109.448 9.78069 109.448 7.46213Z" fill="#CD1127"/>
<path id="Vector_6" d="M121.768 7.46213C121.768 5.53325 123.16 4.05249 125.266 4.05249C127.373 4.05249 128.765 5.12409 128.765 7.44265C128.765 9.37154 127.373 10.8523 125.266 10.8523C123.16 10.8523 121.768 9.78069 121.768 7.46213Z" fill="#275DC5"/>
</g>
<defs>
<clipPath id="clip0_254_14588">
<rect width="132" height="40" fill="white"/>
</clipPath>
</defs>
</svg>
